<?xml version="1.0" encoding="UTF-8"?><svg xmlns="http://www.w3.org/2000/svg" viewBox="0 0 230.52 167.62"><defs><style>.cls-1{fill:#fbe54c;fill-rule:evenodd;}.cls-2{fill:#4c5b5c;}.cls-3{fill:#74ba9f;}</style></defs><g id="base-icon"><path class="cls-3" d="m112.61,164.88c-8.33,0-15.08-6.75-15.08-15.08,0-2.27.5-4.41,1.4-6.34-1.91,2.53-3.04,5.67-3.04,9.08,0,8.33,6.75,15.08,15.08,15.08,6.06,0,11.29-3.58,13.68-8.74-2.75,3.64-7.12,6-12.04,6Z"/><circle class="cls-2" cx="112.49" cy="150.25" r="15.17"/></g><g id="email-icon"><path class="cls-1" d="m102.52,149.02c4.11-1.72,9.08-4.18,13.39-5.83,3.98-1.46,3.91-1.06,3.31,2.92-.46,3.18-.99,6.36-1.52,9.54-.2,1.52-.99,2.32-2.65,1.39l-5.17-3.65c-.73-.6-.53-1.06.07-1.66l4.77-4.51c1.26-1.26.66-1.72-.8-.73l-6.56,4.44c-.93.66-1.92.66-2.98.33l-2.25-.8c-1.46-.53-.33-1.13.4-1.46h0Z"/></g></svg>