<?xml version="1.0" encoding="UTF-8"?><svg xmlns="http://www.w3.org/2000/svg" viewBox="0 0 230.52 167.62"><defs><style>.cls-1{fill:#fbe54c;fill-rule:evenodd;}.cls-2{fill:#4c5b5c;}.cls-3{fill:#74ba9f;}</style></defs><g id="base-icon"><path class="cls-3" d="m112.61,164.88c-8.33,0-15.08-6.75-15.08-15.08,0-2.27.5-4.41,1.4-6.34-1.91,2.53-3.04,5.67-3.04,9.08,0,8.33,6.75,15.08,15.08,15.08,6.06,0,11.29-3.58,13.68-8.74-2.75,3.64-7.12,6-12.04,6Z"/><circle class="cls-2" cx="112.49" cy="150.25" r="15.17"/></g><g id="facebook-icon"><path class="cls-1" d="m110.08,160.45h4.08v-9.4h3.01l.6-3.8h-3.61v-2.87c0-1.07,1.02-1.67,1.99-1.67h1.76v-3.15l-3.15-.14c-3.01-.19-4.68,2.18-4.68,5v2.82h-3.43v3.8h3.43v9.4Z"/></g></svg>