<?xml version="1.0" encoding="UTF-8"?><svg xmlns="http://www.w3.org/2000/svg" viewBox="0 0 230.52 167.62"><defs><style>.cls-1{fill:#fbe54c;fill-rule:evenodd;}.cls-2{fill:#4c5b5c;}.cls-3{fill:#74ba9f;}</style></defs><g id="base-icon"><path class="cls-3" d="m112.61,164.88c-8.33,0-15.08-6.75-15.08-15.08,0-2.27.5-4.41,1.4-6.34-1.91,2.53-3.04,5.67-3.04,9.08,0,8.33,6.75,15.08,15.08,15.08,6.06,0,11.29-3.58,13.68-8.74-2.75,3.64-7.12,6-12.04,6Z"/><circle class="cls-2" cx="112.49" cy="150.25" r="15.17"/></g><g id="instagram-icon"><path class="cls-1" d="m108.88,140.33h8.79c2.82,0,5.15,2.32,5.15,5.15v8.74c0,2.82-2.32,5.15-5.15,5.15h-8.79c-2.82,0-5.15-2.32-5.15-5.15v-8.74c0-2.82,2.32-5.15,5.15-5.15h0Zm9.52,3.32h0c.59,0,1.09.5,1.09,1.09h0c0,.59-.5,1.09-1.09,1.09h0c-.64,0-1.09-.5-1.09-1.09h0c0-.59.46-1.09,1.09-1.09h0Zm-5.15,1h.05c2.82,0,5.19,2.37,5.19,5.19h0c0,2.87-2.37,5.19-5.19,5.19h-.05c-2.82,0-5.15-2.32-5.15-5.19h0c0-2.82,2.32-5.19,5.15-5.19h0Zm0,1.78h.05c1.87,0,3.41,1.55,3.41,3.41h0c0,1.91-1.55,3.46-3.41,3.46h-.05c-1.87,0-3.41-1.55-3.41-3.46h0c0-1.87,1.55-3.41,3.41-3.41h0Zm-4.33-4.46h8.7c1.96,0,3.55,1.59,3.55,3.55v8.65c0,1.96-1.59,3.55-3.55,3.55h-8.7c-1.96,0-3.55-1.59-3.55-3.55v-8.65c0-1.96,1.59-3.55,3.55-3.55h0Z"/></g></svg>