<?xml version="1.0" encoding="UTF-8"?><svg xmlns="http://www.w3.org/2000/svg" viewBox="0 0 230.52 167.62"><defs><style>.cls-1{fill:#fbe54c;fill-rule:evenodd;}.cls-2{fill:#4c5b5c;}.cls-3{fill:#74ba9f;}</style></defs><g id="base-icon"><path class="cls-3" d="m112.61,164.88c-8.33,0-15.08-6.75-15.08-15.08,0-2.27.5-4.41,1.4-6.34-1.91,2.53-3.04,5.67-3.04,9.08,0,8.33,6.75,15.08,15.08,15.08,6.06,0,11.29-3.58,13.68-8.74-2.75,3.64-7.12,6-12.04,6Z"/><circle class="cls-2" cx="112.49" cy="150.25" r="15.17"/></g><g id="linkedin-icon"><path class="cls-1" d="m105.13,146.07h3.36v11.3h-3.36v-11.3Zm1.66-5.73c1.12,0,2.04.91,2.04,2.04s-.91,2.04-2.04,2.04-1.99-.91-1.99-2.04.87-2.04,1.99-2.04h0Zm3.7,5.73h3.32v1.58c.71-1.04,1.87-1.7,3.2-1.7h.91c2.12,0,3.82,1.74,3.82,3.82v7.6h-3.32v-1.04h0v-5.07h0c-.04-1.29-.91-2.28-2.2-2.28h0c-1.29,0-2.37,1-2.41,2.28h0v6.11h-3.32v-11.3Z"/></g></svg>