<?xml version="1.0" encoding="UTF-8"?><svg xmlns="http://www.w3.org/2000/svg" viewBox="0 0 230.52 74.77"><defs><style>.cls-1{fill:#fae54b;}.cls-2{fill:#4c5b5c;}.cls-3{fill:#231f20;}</style></defs><g id="e"><path class="cls-2" d="m17.55,48.46c-4.3,0-7.74-.68-10.31-2.03-2.57-1.35-4.42-3.3-5.55-5.84-1.13-2.54-1.7-5.57-1.7-9.11,0-1.49.08-2.91.25-4.26.17-1.35.36-2.66.58-3.93.77-4.97,2.18-8.94,4.22-11.92,2.04-2.98,4.69-5.14,7.95-6.5,3.26-1.35,7.04-2.03,11.34-2.03,2.1,0,4.18.21,6.25.62,2.07.41,3.93,1.1,5.59,2.07,1.66.97,2.99,2.33,4.01,4.1,1.02,1.77,1.53,4.06,1.53,6.87,0,3.15-.5,5.74-1.49,7.78-.99,2.04-2.36,3.59-4.1,4.64-1.74,1.05-3.73,1.78-5.96,2.19s-4.65.62-7.24.62c-1.82,0-3.49-.07-5.01-.21-1.52-.14-2.75-.32-3.68-.54-.06.33-.1.7-.12,1.12-.03.41-.04.81-.04,1.2,0,1.6.72,2.79,2.15,3.56,1.43.77,3.78,1.16,7.04,1.16h14.57l-1.32,8.36c-2.37.5-5.2.97-8.49,1.41-3.28.44-6.77.66-10.47.66Zm1.9-24.5c2.26,0,4.04-.22,5.34-.66,1.3-.44,2.22-1.1,2.77-1.99.55-.88.83-1.96.83-3.23,0-1.43-.41-2.51-1.24-3.23-.83-.72-2.1-1.08-3.81-1.08-1.6,0-2.95.37-4.06,1.12-1.1.74-1.99,1.84-2.65,3.27-.66,1.44-1.16,3.23-1.49,5.38.66.06,1.37.14,2.11.25.75.11,1.48.17,2.19.17Z"/></g><g id="net"><g><g><path class="cls-1" d="m53.69,49.92c-1.53,0-2.89-1.1-3.15-2.66-.55-3.23-5.1-31.85,4.42-41.37C60.72.13,73.49.37,77.27.58c3.2.18,13.94,1.11,17.5,5.57,8.13,10.18,6.98,37.63,6.83,40.73-.09,1.77-1.59,3.11-3.36,3.04-1.77-.09-3.12-1.59-3.04-3.36.39-7.74.17-29.38-5.44-36.41-.72-.9-5.22-2.75-12.85-3.18-7.92-.44-14.92.94-17.43,3.44-5.42,5.42-4.49,24.82-2.63,35.77.3,1.74-.88,3.4-2.62,3.69-.18.03-.36.05-.54.05Z"/><path class="cls-3" d="m53.69,50.42c-1.81,0-3.34-1.29-3.65-3.08-.56-3.26-5.14-32.11,4.56-41.81C60.51-.37,73.46-.13,77.29.08c3.26.18,14.17,1.14,17.86,5.76,8.24,10.33,7.09,37.95,6.94,41.07-.1,2.02-1.83,3.58-3.88,3.51-2.04-.1-3.62-1.85-3.51-3.88.39-7.69.19-29.17-5.33-36.07-.49-.61-4.52-2.54-12.49-2.99-7.79-.43-14.64.89-17.05,3.3-5.29,5.29-4.34,24.48-2.49,35.33.34,2.01-1.02,3.93-3.03,4.27-.21.04-.42.05-.62.05ZM74.19,1c-5.29,0-14.36.72-18.88,5.24-9.34,9.34-4.82,37.73-4.28,40.93.25,1.45,1.62,2.47,3.12,2.21.71-.12,1.33-.51,1.75-1.1s.58-1.3.46-2.02c-1.88-11.05-2.78-30.65,2.77-36.21,2.59-2.59,9.75-4.04,17.81-3.59,7.52.42,12.33,2.26,13.21,3.36,5.71,7.15,5.94,28.95,5.55,36.75-.08,1.49,1.07,2.76,2.56,2.83,1.49.04,2.76-1.08,2.83-2.56.16-3.08,1.29-30.35-6.72-40.39-3.43-4.3-13.98-5.21-17.14-5.39-.72-.04-1.78-.08-3.05-.08Z"/></g><rect class="cls-3" x="76.2" y="4.1" width="1" height="50.52" transform="translate(2.97 65.53) rotate(-47.08)"/><polygon class="cls-3" points="88.38 52.57 55.42 21.71 56.11 20.98 88.01 50.86 94.6 35.13 63.93 8.42 64.59 7.66 95.8 34.85 88.38 52.57"/><path class="cls-3" d="m64.34,50.73l-9.54-10.08,3.72-5.82-3.43-3.21.68-.73,3.29,3.08,17.73-27.75,9.68,8.13,2.87-4.48.84.54-2.94,4.59,7.63,6.42-19.43,29.27-6.92-6.49-4.18,6.52Zm4.73-7.38l6.19,5.8,18.28-27.54-6.85-5.76-17.63,27.5Zm-13.01-2.82l8.12,8.58,3.59-5.6-8.52-7.98-3.2,5Zm3.74-5.86l8.52,7.98,17.6-27.45-8.9-7.48-17.22,26.95Z"/><rect class="cls-3" x="49.65" y="17.74" width="23.86" height="1" transform="translate(14.09 61.49) rotate(-58.83)"/></g></g><g id="v"><path class="cls-2" d="m114.22,48.46l-7.2-44.53h14.73l3.06,31.29,8.11-18.54c.94-2.21,1.71-4.33,2.32-6.37.61-2.04,1.02-4.39,1.24-7.04h13.24c-.06,3.48-.73,6.86-2.03,10.14-1.3,3.28-2.66,6.36-4.1,9.23l-12.91,25.83h-16.47Z"/></g><g id="r"><path class="cls-2" d="m150.39,48.46l7.04-44.53h12.83l.58,5.88c1.49-1.77,3.19-3.27,5.09-4.51s4.1-1.86,6.58-1.86c.83,0,1.57.03,2.24.08.66.06,1.3.17,1.9.33l-2.15,14.32c-.77,0-1.59-.01-2.44-.04-.86-.03-1.7-.04-2.53-.04-2.37,0-4.44.33-6.21.99-1.77.66-3.2,1.41-4.3,2.23l-4.3,27.15h-14.32Z"/></g><g id="o"><path class="cls-2" d="m205.61,48.46c-4.03,0-7.37-.59-10.02-1.78-2.65-1.19-4.64-2.94-5.96-5.26-1.33-2.32-1.99-5.19-1.99-8.61,0-1.66.05-3.17.17-4.55.11-1.38.28-2.7.5-3.97.72-4.47,1.71-8.1,2.98-10.89,1.27-2.79,2.87-4.94,4.8-6.46,1.93-1.52,4.28-2.57,7.04-3.15,2.76-.58,5.96-.87,9.6-.87,4.91,0,8.65.59,11.22,1.78,2.57,1.19,4.3,2.99,5.21,5.42.91,2.43,1.37,5.52,1.37,9.27,0,1.27-.06,2.68-.17,4.22-.11,1.55-.3,3.12-.58,4.72-.83,5.41-2.22,9.57-4.18,12.5-1.96,2.93-4.57,4.93-7.82,6-3.26,1.08-7.31,1.61-12.17,1.61Zm1.49-11.42c1.32,0,2.45-.17,3.39-.5.94-.33,1.71-.87,2.32-1.61.61-.74,1.13-1.82,1.57-3.23.44-1.41.83-3.21,1.16-5.42.22-1.54.4-2.92.54-4.14.14-1.21.21-2.34.21-3.39,0-1.77-.43-2.98-1.28-3.64-.86-.66-2.25-.99-4.18-.99-1.38,0-2.53.17-3.44.5-.91.33-1.67.95-2.28,1.86-.61.91-1.13,2.17-1.57,3.77-.44,1.6-.83,3.61-1.16,6.04-.22,1.16-.37,2.21-.46,3.15-.08.94-.12,1.85-.12,2.73,0,1.27.19,2.26.58,2.98.38.72.96,1.21,1.74,1.49.77.28,1.77.41,2.98.41Z"/></g><g id="hockeygear"><g><path class="cls-3" d="m77.27,53.77v15.84h-1.92v-15.84h1.92Zm9.48,6.91v1.8h-10.39v-1.8h10.39Zm1.03-6.91v15.84h-1.92v-15.84h1.92Z"/><path class="cls-3" d="m97.38,57.37c1.14,0,2.14.25,3.01.74s1.56,1.21,2.05,2.15c.5.94.74,2.05.74,3.35s-.25,2.41-.74,3.35c-.5.94-1.18,1.65-2.05,2.15s-1.88.74-3.01.74-2.12-.25-3-.74c-.88-.5-1.57-1.21-2.06-2.15-.5-.94-.74-2.05-.74-3.35s.25-2.41.74-3.35c.5-.94,1.18-1.65,2.06-2.15.88-.5,1.88-.74,3-.74Zm0,1.66c-.82,0-1.51.18-2.09.55-.58.37-1.02.89-1.33,1.57-.31.68-.47,1.5-.47,2.46s.16,1.76.47,2.45c.31.69.76,1.22,1.33,1.58.58.37,1.27.55,2.09.55s1.51-.18,2.09-.55c.58-.37,1.02-.9,1.33-1.58.31-.69.47-1.5.47-2.45s-.16-1.78-.47-2.46c-.31-.68-.76-1.2-1.33-1.57-.58-.37-1.27-.55-2.09-.55Z"/><path class="cls-3" d="m111.78,57.37c.83,0,1.56.13,2.2.38.63.26,1.18.62,1.64,1.1.46.48.84,1.05,1.13,1.7l-1.82.86c-.26-.77-.64-1.36-1.16-1.76-.52-.41-1.2-.61-2.03-.61s-1.49.18-2.06.54c-.58.36-1.02.88-1.32,1.56-.3.68-.46,1.5-.46,2.46s.15,1.76.46,2.45c.3.69.74,1.21,1.32,1.57.58.36,1.26.54,2.06.54.62,0,1.16-.1,1.62-.29.46-.19.83-.47,1.13-.84.3-.37.5-.82.61-1.34l1.78.62c-.27.74-.64,1.37-1.12,1.9-.47.53-1.04.93-1.7,1.21-.66.28-1.42.42-2.27.42-1.12,0-2.12-.25-3-.74-.88-.5-1.57-1.21-2.06-2.15-.5-.94-.74-2.05-.74-3.35s.25-2.41.74-3.35c.5-.94,1.18-1.65,2.06-2.15.88-.5,1.88-.74,3-.74Z"/><path class="cls-3" d="m122.18,52.09v17.52h-1.92v-17.52h1.92Zm8.62,5.52l-5.18,5.18-.46.46-3.94,3.94v-2.4l7.15-7.18h2.42Zm-5.02,4.2l5.3,7.8h-2.33l-4.58-6.72,1.61-1.08Z"/><path class="cls-3" d="m138.45,69.85c-1.14,0-2.15-.25-3.04-.74s-1.58-1.21-2.08-2.15c-.5-.94-.74-2.05-.74-3.35s.25-2.41.74-3.35c.5-.94,1.18-1.65,2.04-2.15s1.85-.74,2.95-.74,2.08.24,2.87.72c.79.48,1.4,1.13,1.81,1.96.42.82.62,1.75.62,2.77,0,.27,0,.52-.02.74-.02.22-.04.42-.07.6h-9.7v-1.7h8.86l-.98.19c0-1.15-.32-2.04-.95-2.66s-1.46-.94-2.48-.94c-.78,0-1.46.18-2.03.54-.57.36-1.01.88-1.32,1.56-.31.68-.47,1.5-.47,2.46s.16,1.76.48,2.45c.32.69.77,1.21,1.36,1.57.58.36,1.28.54,2.1.54.88,0,1.6-.17,2.15-.5s1-.79,1.33-1.37l1.51.89c-.3.54-.69,1.02-1.16,1.42s-1.02.71-1.66.92c-.63.22-1.34.32-2.12.32Z"/><path class="cls-3" d="m156.57,57.61l-5.64,14.02c-.3.78-.64,1.4-1,1.86-.36.46-.76.78-1.2.98-.44.2-.95.3-1.52.3-.54,0-1.04-.08-1.5-.23s-.86-.36-1.21-.61l.53-1.68c.32.29.66.5,1.02.64.36.14.72.2,1.07.2.42,0,.81-.13,1.18-.38s.7-.78,1.01-1.56l.62-1.56-1.2-2.86-3.82-9.12h2.18l3,7.82.74,2.14.86-2.38,2.81-7.58h2.06Z"/><path class="cls-3" d="m173.42,69.85c-1.5,0-2.8-.33-3.9-1s-1.94-1.6-2.54-2.82-.9-2.66-.9-4.34.32-3.13.95-4.34,1.52-2.16,2.65-2.82c1.14-.66,2.44-1,3.91-1,1.57,0,2.84.3,3.83.89.98.59,1.78,1.5,2.39,2.74l-1.75.96c-.35-.91-.91-1.6-1.67-2.08-.76-.47-1.69-.71-2.8-.71s-2.02.25-2.84.76c-.82.5-1.47,1.23-1.94,2.18-.47.95-.71,2.09-.71,3.42s.2,2.47.61,3.42c.41.95,1.02,1.68,1.82,2.18.81.5,1.8.76,2.96.76.66,0,1.27-.08,1.84-.25.57-.17,1.06-.42,1.49-.76s.76-.76,1-1.27.36-1.11.36-1.8v-.55h-5.04v-1.8h6.79v7.99h-1.51l-.1-2.95.41.07c-.42.99-1.07,1.76-1.97,2.3-.9.54-2.01.82-3.34.82Z"/><path class="cls-3" d="m189.06,69.85c-1.14,0-2.15-.25-3.04-.74-.89-.5-1.58-1.21-2.08-2.15-.5-.94-.74-2.05-.74-3.35s.25-2.41.74-3.35c.5-.94,1.18-1.65,2.04-2.15.86-.5,1.85-.74,2.95-.74s2.08.24,2.87.72c.79.48,1.4,1.13,1.81,1.96.42.82.62,1.75.62,2.77,0,.27,0,.52-.02.74s-.04.42-.07.6h-9.7v-1.7h8.86l-.98.19c0-1.15-.32-2.04-.95-2.66-.63-.62-1.46-.94-2.48-.94-.78,0-1.46.18-2.03.54-.57.36-1.01.88-1.32,1.56-.31.68-.47,1.5-.47,2.46s.16,1.76.48,2.45c.32.69.77,1.21,1.36,1.57.58.36,1.28.54,2.1.54.88,0,1.6-.17,2.15-.5.55-.34,1-.79,1.33-1.37l1.51.89c-.3.54-.69,1.02-1.16,1.42-.47.4-1.02.71-1.66.92s-1.34.32-2.12.32Z"/><path class="cls-3" d="m204.9,61.86c0-.9-.24-1.59-.72-2.08-.48-.49-1.16-.73-2.04-.73-.83,0-1.54.18-2.11.54-.58.36-1,.94-1.27,1.74l-1.56-.96c.32-.9.91-1.62,1.78-2.17.86-.55,1.94-.83,3.22-.83.86,0,1.65.15,2.35.44s1.26.74,1.67,1.34c.41.6.61,1.37.61,2.32v5.81c0,.58.3.86.91.86.3,0,.6-.04.89-.12l-.1,1.51c-.32.16-.74.24-1.25.24-.46,0-.88-.09-1.25-.26-.37-.18-.66-.44-.86-.8-.21-.36-.31-.81-.31-1.36v-.24l.48.07c-.19.62-.52,1.13-.98,1.52-.46.39-.98.68-1.56.86s-1.14.28-1.7.28c-.7,0-1.36-.12-1.97-.36-.61-.24-1.09-.6-1.45-1.09-.36-.49-.54-1.09-.54-1.81,0-.9.3-1.64.9-2.22.6-.58,1.44-.98,2.51-1.19l4.75-.94v1.58l-3.86.79c-.78.16-1.37.38-1.75.67s-.58.69-.58,1.2.2.9.59,1.21c.39.31.95.47,1.67.47.46,0,.91-.06,1.33-.18s.8-.3,1.14-.55.6-.56.79-.94c.19-.38.29-.82.29-1.33v-3.31Z"/><path class="cls-3" d="m211.48,69.61v-12h1.56l.26,1.97c.34-.74.83-1.29,1.48-1.66.65-.37,1.44-.55,2.36-.55.21,0,.44.02.68.05.25.03.46.1.64.19l-.34,1.75c-.18-.06-.37-.11-.58-.14s-.5-.05-.89-.05c-.5,0-1,.14-1.5.43s-.92.72-1.26,1.31c-.34.58-.5,1.32-.5,2.22v6.48h-1.92Z"/></g></g></svg>