<?xml version="1.0" encoding="utf-8"?>
<!-- Generator: Adobe Illustrator 27.3.1, SVG Export Plug-In . SVG Version: 6.00 Build 0)  -->
<svg version="1.1" id="Layer_1" xmlns="http://www.w3.org/2000/svg" xmlns:xlink="http://www.w3.org/1999/xlink" x="0px" y="0px"
	 viewBox="0 0 149.1 48.8" style="enable-background:new 0 0 149.1 48.8;" xml:space="preserve">
<style type="text/css">
	.st0{fill:#4C5B5C;}
	.st1{fill:#FAE54B;}
	.st2{fill:#231F20;}
</style>
<g id="e">
	<path class="st0" d="M14.3,32.6c-2.6,0-4.8-0.4-6.3-1.2s-2.7-2-3.4-3.6s-1-3.4-1-5.6c0-0.9,0-1.8,0.2-2.6c0.1-0.8,0.2-1.6,0.4-2.4
		c0.5-3.1,1.3-5.5,2.6-7.3s2.9-3.2,4.9-4c2-0.8,4.3-1.2,7-1.2c1.3,0,2.6,0.1,3.8,0.4c1.3,0.3,2.4,0.7,3.4,1.3s1.8,1.4,2.5,2.5
		c0.6,1.1,0.9,2.5,0.9,4.2c0,1.9-0.3,3.5-0.9,4.8c-0.6,1.3-1.4,2.2-2.5,2.9c-1.1,0.6-2.3,1.1-3.7,1.3c-1.4,0.3-2.9,0.4-4.4,0.4
		c-1.1,0-2.1,0-3.1-0.1c-0.9-0.1-1.7-0.2-2.3-0.3c0,0.2-0.1,0.4-0.1,0.7c0,0.3,0,0.5,0,0.7c0,1,0.4,1.7,1.3,2.2
		c0.9,0.5,2.3,0.7,4.3,0.7h9L26,31.3c-1.5,0.3-3.2,0.6-5.2,0.9C18.7,32.5,16.6,32.6,14.3,32.6L14.3,32.6z M15.5,17.6
		c1.4,0,2.5-0.1,3.3-0.4c0.8-0.3,1.4-0.7,1.7-1.2c0.3-0.5,0.5-1.2,0.5-2c0-0.9-0.3-1.5-0.8-2s-1.3-0.7-2.3-0.7c-1,0-1.8,0.2-2.5,0.7
		c-0.7,0.5-1.2,1.1-1.6,2c-0.4,0.9-0.7,2-0.9,3.3c0.4,0,0.8,0.1,1.3,0.2C14.6,17.5,15.1,17.6,15.5,17.6L15.5,17.6z"/>
</g>
<g id="net">
	<g>
		<g>
			<path class="st1" d="M36.5,33.5c-0.9,0-1.8-0.7-1.9-1.6c-0.3-2-3.1-19.6,2.7-25.4C40.8,2.9,48.7,3.1,51,3.2
				c2,0.1,8.6,0.7,10.8,3.4c5,6.3,4.3,23.1,4.2,25c-0.1,1.1-1,1.9-2.1,1.9c-1.1-0.1-1.9-1-1.9-2.1c0.2-4.8,0.1-18-3.3-22.4
				c-0.4-0.6-3.2-1.7-7.9-2c-4.9-0.3-9.2,0.6-10.7,2.1c-3.3,3.3-2.8,15.2-1.6,22c0.2,1.1-0.5,2.1-1.6,2.3
				C36.8,33.5,36.6,33.5,36.5,33.5z"/>
			<path class="st2" d="M36.5,33.8c-1.1,0-2.1-0.8-2.2-1.9c-0.3-2-3.2-19.7,2.8-25.7C40.7,2.6,48.7,2.8,51,2.9c2,0.1,8.7,0.7,11,3.5
				c5.1,6.3,4.4,23.3,4.3,25.2c-0.1,1.2-1.1,2.2-2.4,2.2c-1.3-0.1-2.2-1.1-2.2-2.4c0.2-4.7,0.1-17.9-3.3-22.2
				c-0.3-0.4-2.8-1.6-7.7-1.8c-4.8-0.3-9,0.5-10.5,2c-3.2,3.2-2.7,15-1.5,21.7c0.2,1.2-0.6,2.4-1.9,2.6
				C36.8,33.8,36.7,33.8,36.5,33.8L36.5,33.8z M49.1,3.5c-3.2,0-8.8,0.4-11.6,3.2c-5.7,5.7-3,23.2-2.6,25.1c0.2,0.9,1,1.5,1.9,1.4
				c0.4-0.1,0.8-0.3,1.1-0.7c0.3-0.4,0.4-0.8,0.3-1.2C37,24.5,36.5,12.4,39.9,9c1.6-1.6,6-2.5,10.9-2.2c4.6,0.3,7.6,1.4,8.1,2.1
				c3.5,4.4,3.6,17.8,3.4,22.6c0,0.9,0.7,1.7,1.6,1.7c0.9,0,1.7-0.7,1.7-1.6c0.1-1.9,0.8-18.6-4.1-24.8C59.4,4.2,52.9,3.6,51,3.5
				C50.5,3.5,49.9,3.4,49.1,3.5L49.1,3.5z"/>
		</g>
		<rect x="50.4" y="5.4" transform="matrix(0.681 -0.7323 0.7323 0.681 0.8773 43.7631)" class="st2" width="0.6" height="31"/>
		<polygon class="st2" points="57.8,35.1 37.6,16.2 38,15.7 57.6,34.1 61.7,24.4 42.8,8 43.2,7.5 62.4,24.2 		"/>
		<path class="st2" d="M43.1,34l-5.9-6.2l2.3-3.6l-2.1-2l0.4-0.4l2,1.9l10.9-17l5.9,5l1.8-2.8l0.5,0.3l-1.8,2.8l4.7,3.9L49.9,34
			l-4.3-4L43.1,34L43.1,34z M46,29.5l3.8,3.6L61,16.1l-4.2-3.5L46,29.5L46,29.5z M38,27.7l5,5.3l2.2-3.4l-5.2-4.9L38,27.7L38,27.7z
			 M40.3,24.1l5.2,4.9l10.8-16.9l-5.5-4.6C50.9,7.6,40.3,24.1,40.3,24.1z"/>
		<rect x="34" y="13.7" transform="matrix(0.5176 -0.8556 0.8556 0.5176 7.9396 42.1748)" class="st2" width="14.7" height="0.6"/>
	</g>
</g>
<g id="v">
	<path class="st0" d="M73.7,32.6L69.3,5.3h9l1.9,19.2l5-11.4c0.6-1.4,1.1-2.7,1.4-3.9c0.4-1.3,0.6-2.7,0.8-4.3h8.1
		c0,2.1-0.4,4.2-1.2,6.2c-0.8,2-1.6,3.9-2.5,5.7l-7.9,15.9L73.7,32.6L73.7,32.6z"/>
</g>
<g id="r">
	<path class="st0" d="M95.9,32.6l4.3-27.4h7.9l0.4,3.6c0.9-1.1,2-2,3.1-2.8c1.2-0.8,2.5-1.1,4-1.1c0.5,0,1,0,1.4,0
		c0.4,0,0.8,0.1,1.2,0.2l-1.3,8.8c-0.5,0-1,0-1.5,0c-0.5,0-1,0-1.6,0c-1.5,0-2.7,0.2-3.8,0.6c-1.1,0.4-2,0.9-2.6,1.4l-2.6,16.7H95.9
		L95.9,32.6z"/>
</g>
<g id="o">
	<path class="st0" d="M129.9,32.6c-2.5,0-4.5-0.4-6.2-1.1c-1.6-0.7-2.9-1.8-3.7-3.2c-0.8-1.4-1.2-3.2-1.2-5.3c0-1,0-1.9,0.1-2.8
		c0.1-0.8,0.2-1.7,0.3-2.4c0.4-2.7,1.1-5,1.8-6.7c0.8-1.7,1.8-3,2.9-4s2.6-1.6,4.3-1.9c1.7-0.4,3.7-0.5,5.9-0.5c3,0,5.3,0.4,6.9,1.1
		c1.6,0.7,2.6,1.8,3.2,3.3s0.8,3.4,0.8,5.7c0,0.8,0,1.6-0.1,2.6c-0.1,1-0.2,1.9-0.4,2.9c-0.5,3.3-1.4,5.9-2.6,7.7
		c-1.2,1.8-2.8,3-4.8,3.7C135.3,32.3,132.8,32.6,129.9,32.6L129.9,32.6z M130.8,25.6c0.8,0,1.5-0.1,2.1-0.3c0.6-0.2,1.1-0.5,1.4-1
		c0.4-0.5,0.7-1.1,1-2c0.3-0.9,0.5-2,0.7-3.3c0.1-0.9,0.2-1.8,0.3-2.5c0.1-0.7,0.1-1.4,0.1-2.1c0-1.1-0.3-1.8-0.8-2.2
		c-0.5-0.4-1.4-0.6-2.6-0.6c-0.8,0-1.6,0.1-2.1,0.3c-0.6,0.2-1,0.6-1.4,1.1c-0.4,0.6-0.7,1.3-1,2.3c-0.3,1-0.5,2.2-0.7,3.7
		c-0.1,0.7-0.2,1.4-0.3,1.9c0,0.6-0.1,1.1-0.1,1.7c0,0.8,0.1,1.4,0.4,1.8c0.2,0.4,0.6,0.7,1.1,0.9C129.4,25.5,130,25.6,130.8,25.6
		L130.8,25.6z"/>
</g>
<g id="hockeygear">
	<g>
		<path class="st2" d="M51,35.9v9.7h-1.2v-9.7H51z M56.8,40.1v1.1h-6.4v-1.1H56.8z M57.5,35.9v9.7h-1.2v-9.7H57.5z"/>
		<path class="st2" d="M63.4,38.1c0.7,0,1.3,0.2,1.8,0.5s1,0.7,1.3,1.3c0.3,0.6,0.5,1.3,0.5,2.1c0,0.8-0.2,1.5-0.5,2.1
			c-0.3,0.6-0.7,1-1.3,1.3s-1.2,0.5-1.8,0.5s-1.3-0.2-1.8-0.5c-0.5-0.3-1-0.7-1.3-1.3c-0.3-0.6-0.5-1.3-0.5-2.1s0.2-1.5,0.5-2.1
			c0.3-0.6,0.7-1,1.3-1.3S62.7,38.1,63.4,38.1z M63.4,39.1c-0.5,0-0.9,0.1-1.3,0.3c-0.4,0.2-0.6,0.5-0.8,1c-0.2,0.4-0.3,0.9-0.3,1.5
			c0,0.6,0.1,1.1,0.3,1.5c0.2,0.4,0.5,0.7,0.8,1c0.4,0.2,0.8,0.3,1.3,0.3s0.9-0.1,1.3-0.3c0.4-0.2,0.6-0.6,0.8-1
			c0.2-0.4,0.3-0.9,0.3-1.5c0-0.6-0.1-1.1-0.3-1.5c-0.2-0.4-0.5-0.7-0.8-1C64.3,39.2,63.9,39.1,63.4,39.1z"/>
		<path class="st2" d="M72.2,38.1c0.5,0,1,0.1,1.4,0.2c0.4,0.2,0.7,0.4,1,0.7s0.5,0.6,0.7,1l-1.1,0.5c-0.2-0.5-0.4-0.8-0.7-1.1
			c-0.3-0.3-0.7-0.4-1.2-0.4c-0.5,0-0.9,0.1-1.3,0.3c-0.4,0.2-0.6,0.5-0.8,1c-0.2,0.4-0.3,0.9-0.3,1.5c0,0.6,0.1,1.1,0.3,1.5
			c0.2,0.4,0.5,0.7,0.8,1c0.4,0.2,0.8,0.3,1.3,0.3c0.4,0,0.7-0.1,1-0.2c0.3-0.1,0.5-0.3,0.7-0.5c0.2-0.2,0.3-0.5,0.4-0.8l1.1,0.4
			c-0.2,0.5-0.4,0.8-0.7,1.2c-0.3,0.3-0.6,0.6-1,0.7s-0.9,0.3-1.4,0.3c-0.7,0-1.3-0.2-1.8-0.5c-0.5-0.3-1-0.7-1.3-1.3
			c-0.3-0.6-0.5-1.3-0.5-2.1s0.2-1.5,0.5-2.1c0.3-0.6,0.7-1,1.3-1.3C70.9,38.2,71.5,38.1,72.2,38.1L72.2,38.1z"/>
		<path class="st2" d="M78.6,34.8v10.8h-1.2V34.8H78.6z M83.9,38.2l-3.2,3.2l-0.3,0.3L78,44.1v-1.5l4.4-4.4H83.9L83.9,38.2z
			 M80.8,40.8l3.3,4.8h-1.4l-2.8-4.1C79.8,41.5,80.8,40.8,80.8,40.8z"/>
		<path class="st2" d="M88.6,45.8c-0.7,0-1.3-0.2-1.9-0.5s-1-0.7-1.3-1.3S85,42.7,85,41.9s0.2-1.5,0.5-2.1c0.3-0.6,0.7-1,1.3-1.3
			c0.5-0.3,1.1-0.5,1.8-0.5c0.7,0,1.3,0.1,1.8,0.4c0.5,0.3,0.9,0.7,1.1,1.2c0.3,0.5,0.4,1.1,0.4,1.7c0,0.2,0,0.3,0,0.5s0,0.3,0,0.4
			h-6v-1h5.4l-0.6,0.1c0-0.7-0.2-1.3-0.6-1.6s-0.9-0.6-1.5-0.6c-0.5,0-0.9,0.1-1.2,0.3c-0.4,0.2-0.6,0.5-0.8,1
			c-0.2,0.4-0.3,0.9-0.3,1.5s0.1,1.1,0.3,1.5c0.2,0.4,0.5,0.7,0.8,1c0.4,0.2,0.8,0.3,1.3,0.3c0.5,0,1-0.1,1.3-0.3
			c0.3-0.2,0.6-0.5,0.8-0.8l0.9,0.5c-0.2,0.3-0.4,0.6-0.7,0.9c-0.3,0.2-0.6,0.4-1,0.6C89.5,45.7,89.1,45.8,88.6,45.8L88.6,45.8z"/>
		<path class="st2" d="M99.7,38.2l-3.5,8.6c-0.2,0.5-0.4,0.9-0.6,1.1c-0.2,0.3-0.5,0.5-0.7,0.6c-0.3,0.1-0.6,0.2-0.9,0.2
			c-0.3,0-0.6,0-0.9-0.1c-0.3-0.1-0.5-0.2-0.7-0.4l0.3-1c0.2,0.2,0.4,0.3,0.6,0.4c0.2,0.1,0.4,0.1,0.7,0.1c0.3,0,0.5-0.1,0.7-0.2
			s0.4-0.5,0.6-1l0.4-1l-0.7-1.8l-2.3-5.6h1.3l1.8,4.8l0.5,1.3l0.5-1.5l1.7-4.7L99.7,38.2L99.7,38.2z"/>
		<path class="st2" d="M110.1,45.8c-0.9,0-1.7-0.2-2.4-0.6c-0.7-0.4-1.2-1-1.6-1.7c-0.4-0.7-0.6-1.6-0.6-2.7c0-1,0.2-1.9,0.6-2.7
			c0.4-0.7,0.9-1.3,1.6-1.7c0.7-0.4,1.5-0.6,2.4-0.6c1,0,1.7,0.2,2.4,0.5c0.6,0.4,1.1,0.9,1.5,1.7l-1.1,0.6c-0.2-0.6-0.6-1-1-1.3
			c-0.5-0.3-1-0.4-1.7-0.4c-0.7,0-1.2,0.2-1.7,0.5c-0.5,0.3-0.9,0.8-1.2,1.3c-0.3,0.6-0.4,1.3-0.4,2.1s0.1,1.5,0.4,2.1
			s0.6,1,1.1,1.3c0.5,0.3,1.1,0.5,1.8,0.5c0.4,0,0.8,0,1.1-0.2c0.4-0.1,0.7-0.3,0.9-0.5c0.3-0.2,0.5-0.5,0.6-0.8s0.2-0.7,0.2-1.1
			v-0.3h-3.1v-1.1h4.2v4.9h-0.9l-0.1-1.8l0.3,0c-0.3,0.6-0.7,1.1-1.2,1.4C111.6,45.6,110.9,45.8,110.1,45.8L110.1,45.8z"/>
		<path class="st2" d="M119.7,45.8c-0.7,0-1.3-0.2-1.9-0.5c-0.5-0.3-1-0.7-1.3-1.3s-0.5-1.3-0.5-2.1s0.2-1.5,0.5-2.1
			c0.3-0.6,0.7-1,1.3-1.3c0.5-0.3,1.1-0.5,1.8-0.5c0.7,0,1.3,0.1,1.8,0.4c0.5,0.3,0.9,0.7,1.1,1.2c0.3,0.5,0.4,1.1,0.4,1.7
			c0,0.2,0,0.3,0,0.5s0,0.3,0,0.4h-6v-1h5.4l-0.6,0.1c0-0.7-0.2-1.3-0.6-1.6c-0.4-0.4-0.9-0.6-1.5-0.6c-0.5,0-0.9,0.1-1.2,0.3
			c-0.4,0.2-0.6,0.5-0.8,1c-0.2,0.4-0.3,0.9-0.3,1.5s0.1,1.1,0.3,1.5c0.2,0.4,0.5,0.7,0.8,1c0.4,0.2,0.8,0.3,1.3,0.3
			c0.5,0,1-0.1,1.3-0.3c0.3-0.2,0.6-0.5,0.8-0.8l0.9,0.5c-0.2,0.3-0.4,0.6-0.7,0.9c-0.3,0.2-0.6,0.4-1,0.6
			C120.6,45.7,120.2,45.8,119.7,45.8L119.7,45.8z"/>
		<path class="st2" d="M129.4,40.8c0-0.6-0.1-1-0.4-1.3s-0.7-0.4-1.3-0.4c-0.5,0-0.9,0.1-1.3,0.3c-0.4,0.2-0.6,0.6-0.8,1.1l-1-0.6
			c0.2-0.6,0.6-1,1.1-1.3c0.5-0.3,1.2-0.5,2-0.5c0.5,0,1,0.1,1.4,0.3c0.4,0.2,0.8,0.5,1,0.8s0.4,0.8,0.4,1.4v3.6
			c0,0.4,0.2,0.5,0.6,0.5c0.2,0,0.4,0,0.5-0.1l-0.1,0.9c-0.2,0.1-0.5,0.1-0.8,0.1c-0.3,0-0.5-0.1-0.8-0.2c-0.2-0.1-0.4-0.3-0.5-0.5
			c-0.1-0.2-0.2-0.5-0.2-0.8v-0.1l0.3,0c-0.1,0.4-0.3,0.7-0.6,0.9c-0.3,0.2-0.6,0.4-1,0.5c-0.4,0.1-0.7,0.2-1,0.2
			c-0.4,0-0.8-0.1-1.2-0.2c-0.4-0.1-0.7-0.4-0.9-0.7c-0.2-0.3-0.3-0.7-0.3-1.1c0-0.6,0.2-1,0.6-1.4c0.4-0.4,0.9-0.6,1.5-0.7l2.9-0.6
			v1l-2.4,0.5c-0.5,0.1-0.8,0.2-1.1,0.4c-0.2,0.2-0.4,0.4-0.4,0.7c0,0.3,0.1,0.6,0.4,0.7s0.6,0.3,1,0.3c0.3,0,0.6,0,0.8-0.1
			c0.3-0.1,0.5-0.2,0.7-0.3s0.4-0.3,0.5-0.6c0.1-0.2,0.2-0.5,0.2-0.8L129.4,40.8L129.4,40.8z"/>
		<path class="st2" d="M133.5,45.6v-7.4h1l0.2,1.2c0.2-0.5,0.5-0.8,0.9-1c0.4-0.2,0.9-0.3,1.4-0.3c0.1,0,0.3,0,0.4,0
			c0.2,0,0.3,0.1,0.4,0.1l-0.2,1.1c-0.1,0-0.2-0.1-0.4-0.1s-0.3,0-0.5,0c-0.3,0-0.6,0.1-0.9,0.3s-0.6,0.4-0.8,0.8
			c-0.2,0.4-0.3,0.8-0.3,1.4v4L133.5,45.6L133.5,45.6z"/>
	</g>
</g>
</svg>
