<?xml version="1.0" encoding="UTF-8"?><svg xmlns="http://www.w3.org/2000/svg" viewBox="0 0 230.52 167.62"><defs><style>.cls-1{fill:#4c5b5c;}.cls-2{fill:#fbe54c;}.cls-3{fill:#74ba9f;}</style></defs><g id="base-icon"><path class="cls-3" d="m112.61,164.88c-8.33,0-15.08-6.75-15.08-15.08,0-2.27.5-4.41,1.4-6.34-1.91,2.53-3.04,5.67-3.04,9.08,0,8.33,6.75,15.08,15.08,15.08,6.06,0,11.29-3.58,13.68-8.74-2.75,3.64-7.12,6-12.04,6Z"/><circle class="cls-1" cx="112.49" cy="150.25" r="15.17"/></g><g id="map-icon"><path class="cls-2" d="m113.04,138.85s.09,0,.13,0c.22.02.45.03.67.06,3.07.43,5.25,2.07,6.53,4.87.66,1.44.84,2.99.76,4.57-.07,1.28-.31,2.51-.71,3.72-.73,2.21-1.88,4.18-3.42,5.92-1.05,1.19-2.24,2.22-3.59,3.06-.29.18-.53.17-.81-.02-1.21-.8-2.32-1.7-3.35-2.73-1.82-1.82-3.22-3.91-4.09-6.33-.6-1.67-.9-3.39-.72-5.17.23-2.28,1.16-4.23,2.94-5.72,1.56-1.3,3.33-2.13,5.4-2.2.09,0,.17-.03.26-.04Zm-.24,4.33c-2.2-.09-4.22,1.78-4.22,4.16,0,2.34,1.86,4.23,4.18,4.24,2.31.01,4.2-1.88,4.21-4.2.01-2.38-1.97-4.27-4.18-4.2Z"/></g></svg>