<?xml version="1.0" encoding="UTF-8"?><svg xmlns="http://www.w3.org/2000/svg" viewBox="0 0 230.52 167.62"><defs><style>.cls-1{fill:#fbe54c;fill-rule:evenodd;}.cls-2{fill:#4c5b5c;}.cls-3{fill:#74ba9f;}</style></defs><g id="base-icon"><path class="cls-3" d="m112.61,164.88c-8.33,0-15.08-6.75-15.08-15.08,0-2.27.5-4.41,1.4-6.34-1.91,2.53-3.04,5.67-3.04,9.08,0,8.33,6.75,15.08,15.08,15.08,6.06,0,11.29-3.58,13.68-8.74-2.75,3.64-7.12,6-12.04,6Z"/><circle class="cls-2" cx="112.49" cy="150.25" r="15.17"/></g><g id="phone-icon"><path class="cls-1" d="m110.36,145.1c.46-.29.75-.08.92.37l.42,1.08s.29.58-.46,1.17q-.12.08-.08.29c.17.5.83,2,2.96,3.16.21.12.25.12.46-.04.17-.17.37-.37.54-.54.37-.33.58-.46.92-.21.25.17.5.37.75.54.25.21.67.46.25.96l-.37.46c-.54.67-1,.71-1.71.54-2.71-.71-4.7-2.62-5.58-5.33-.29-1.04.12-1.92,1-2.46h0Zm2.91-4.45c4.54,0,8.2,3.66,8.2,8.2s-3.66,8.2-8.2,8.2c-1.25,0-2.41-.25-3.46-.75l-4.37.75.58-4.33-.04-.08c-.58-1.12-.92-2.41-.92-3.79,0-4.54,3.66-8.2,8.2-8.2h0Zm-5.16,14.57l1.17-.21.71-.12c1,.54,2.08.83,3.29.83,3.79,0,6.87-3.08,6.87-6.87s-3.08-6.87-6.87-6.87-6.87,3.08-6.87,6.87c0,1.37.42,2.62,1.08,3.71l-.08.62-.17,1.25-.12.96,1-.17Z"/></g></svg>