<?xml version="1.0" encoding="UTF-8"?><svg xmlns="http://www.w3.org/2000/svg" viewBox="0 0 230.52 167.62"><defs><style>.cls-1{fill:#fbe54c;fill-rule:evenodd;}.cls-2{fill:#4c5b5c;}.cls-3{fill:#74ba9f;}</style></defs><g id="base-icon"><path class="cls-3" d="m112.61,164.88c-8.33,0-15.08-6.75-15.08-15.08,0-2.27.5-4.41,1.4-6.34-1.91,2.53-3.04,5.67-3.04,9.08,0,8.33,6.75,15.08,15.08,15.08,6.06,0,11.29-3.58,13.68-8.74-2.75,3.64-7.12,6-12.04,6Z"/><circle class="cls-2" cx="112.49" cy="150.25" r="15.17"/></g><g id="tiktok-icon"><path class="cls-1" d="m121.7,144.8c-.92-.13-1.71-.63-2.38-1.38-.79-.88-1.25-2.05-1.21-3.17h-3.3v13.15c0,1.54-1.25,2.8-2.84,2.8-.92,0-1.75-.46-2.3-1.17-.33-.46-.5-1.04-.5-1.63,0-1.54,1.25-2.8,2.8-2.8.29,0,.58.04.83.13v-3.34c-.25-.04-.54-.08-.83-.08h-.13c-3.34.08-5.97,2.8-5.97,6.09,0,1.59.63,3.05,1.63,4.13,1.13,1.17,2.71,1.92,4.47,1.92,3.38,0,6.14-2.71,6.14-6.05v-6.84c1.25,1.13,2.88,1.67,4.55,1.54v-3.3c-.33.08-.67.08-.96,0Z"/></g></svg>