<?xml version="1.0" encoding="UTF-8"?><svg xmlns="http://www.w3.org/2000/svg" viewBox="0 0 230.52 167.62"><defs><style>.cls-1{fill:#fbe54c;fill-rule:evenodd;}.cls-2{fill:#4c5b5c;}.cls-3{fill:#74ba9f;}</style></defs><g id="base-icon"><path class="cls-3" d="m112.61,164.88c-8.33,0-15.08-6.75-15.08-15.08,0-2.27.5-4.41,1.4-6.34-1.91,2.53-3.04,5.67-3.04,9.08,0,8.33,6.75,15.08,15.08,15.08,6.06,0,11.29-3.58,13.68-8.74-2.75,3.64-7.12,6-12.04,6Z"/><circle class="cls-2" cx="112.49" cy="150.25" r="15.17"/></g><g id="twitter-icon"><path class="cls-1" d="m112.4,147.31c-.74-3.88,3.93-6.18,6.67-3.39,0,0,1.23-.34,2.31-1.03,0,0-.39,1.32-1.72,2.16,0,0,1.47-.2,2.11-.59,0,0-.64,1.32-1.82,1.82.64,8.88-8.93,14.28-16.68,9.86,0,0,3.83.2,5.45-1.67,0,0-2.36.2-3.53-2.65,0,0,.88.34,1.77-.1,0,0-2.75-.44-2.99-3.73,0,0,.88.69,1.86.44,0,0-3.04-1.82-1.32-5.1,0,0,3.24,4.12,7.9,3.97h0Z"/></g></svg>