<?xml version="1.0" encoding="UTF-8"?><svg xmlns="http://www.w3.org/2000/svg" viewBox="0 0 230.52 167.62"><defs><style>.cls-1{fill:#fbe54c;}.cls-1,.cls-2{fill-rule:evenodd;}.cls-3,.cls-2{fill:#4c5b5c;}.cls-4{fill:#74ba9f;}</style></defs><g id="base-icon"><path class="cls-4" d="m112.61,164.88c-8.33,0-15.08-6.75-15.08-15.08,0-2.27.5-4.41,1.4-6.34-1.91,2.53-3.04,5.67-3.04,9.08,0,8.33,6.75,15.08,15.08,15.08,6.06,0,11.29-3.58,13.68-8.74-2.75,3.64-7.12,6-12.04,6Z"/><circle class="cls-3" cx="112.49" cy="150.25" r="15.17"/></g><g id="youtube-icon"><g><path class="cls-1" d="m107.63,144.05c1.79-.14,3.9-.21,5.51-.21h0c1.61,0,3.68.07,5.51.21,2.11.18,3.18.54,3.47,2.65.14.97.21,2.29.21,3.65h0c0,1.36-.07,2.72-.21,3.65-.29,2.15-1.36,2.47-3.47,2.65-1.82.18-3.9.21-5.51.21h0c-1.61,0-3.72-.04-5.51-.21-2.11-.18-3.22-.5-3.51-2.65-.11-.93-.18-2.29-.18-3.65h0c0-1.36.07-2.68.18-3.65.29-2.11,1.4-2.47,3.51-2.65h0Z"/><polygon class="cls-2" points="111.28 147.59 116.07 150.35 111.28 153.14 111.28 147.59"/></g></g></svg>